<svg width="55" height="55" viewBox="0 0 55 55" fill="none" xmlns="http://www.w3.org/2000/svg">
<path d="M28.1286 9.16669C28.9988 9.16669 29.7179 9.81329 29.8317 10.6522L29.8474 10.8854L29.846 41.0988L40.7166 30.1836C41.3864 29.5109 42.4746 29.5086 43.1473 30.1784C43.7588 30.7872 43.8163 31.742 43.3185 32.4159L43.1525 32.609L29.3475 46.4736C29.2592 46.5623 29.1637 46.6393 29.0628 46.7047C29.0324 46.7231 29.0013 46.7419 28.9696 46.7597C28.9425 46.7761 28.9143 46.7909 28.8857 46.8049C28.8442 46.8243 28.8014 46.8433 28.7576 46.8605C28.7239 46.8745 28.6911 46.8861 28.658 46.8968C28.617 46.9094 28.5733 46.9217 28.5289 46.9323C28.498 46.9402 28.4681 46.9464 28.4382 46.9519C28.3937 46.9595 28.3476 46.966 28.301 46.9707C28.2654 46.9747 28.2302 46.9771 28.1949 46.9784C28.1735 46.9788 28.1511 46.9792 28.1286 46.9792L28.0621 46.9783C28.0283 46.977 27.9946 46.9747 27.961 46.9714L28.1286 46.9792C28.0202 46.9792 27.9141 46.9691 27.8112 46.9499C27.7866 46.9455 27.7614 46.9402 27.7363 46.9343C27.6845 46.9221 27.6347 46.908 27.5858 46.8917C27.5616 46.8837 27.5356 46.8745 27.5099 46.8645C27.4582 46.8444 27.4089 46.8226 27.3609 46.7986C27.3383 46.7874 27.3146 46.7749 27.2912 46.7619C27.2531 46.7404 27.2168 46.7183 27.1814 46.6949C27.1564 46.6783 27.1304 46.6601 27.1047 46.641L27.0849 46.6261C27.0244 46.5798 26.9671 46.5296 26.9133 46.4758L26.9117 46.4737L13.1044 32.6091C12.4346 31.9365 12.4368 30.8483 13.1094 30.1785C13.7209 29.5695 14.6759 29.516 15.3477 30.0167L15.5401 30.1835L26.4085 41.0942L26.4099 10.8854C26.4099 9.9362 27.1794 9.16669 28.1286 9.16669Z" fill="#662ABC"/>
</svg>
