<svg width="19" height="20" viewBox="0 0 19 20" fill="none" xmlns="http://www.w3.org/2000/svg">
<g clip-path="url(#clip0_59_2)">
<path d="M16.3595 13.375C15.2291 12.4073 14.0787 11.8192 12.9626 12.7869L12.2946 13.3693C11.8065 13.7946 10.8987 15.7757 7.39045 11.7364C3.88219 7.7058 5.96887 7.0778 6.45986 6.65818L7.13068 6.07299C8.24111 5.1053 7.82149 3.8864 7.01935 2.63039L6.53693 1.87108C5.73195 0.620781 4.85274 -0.201333 3.73946 0.763508L3.13715 1.2916C2.64331 1.64842 1.26741 2.81594 0.933422 5.03108C0.530928 7.68868 1.80121 10.7345 4.7043 14.0743C7.60454 17.417 10.4477 19.0955 13.1367 19.067C15.3718 19.0413 16.7249 17.8424 17.1474 17.4056L17.7497 16.8775C18.8629 15.9127 18.1721 14.9278 17.0389 13.9601L16.3595 13.375Z" fill="white"/>
</g>
<defs>
<clipPath id="clip0_59_2">
<rect width="19" height="19" fill="white" transform="translate(0 0.201172)"/>
</clipPath>
</defs>
</svg>
